<?xml version="1.0" standalone="no"?><!DOCTYPE svg PUBLIC "-//W3C//DTD SVG 1.1//EN" "http://www.w3.org/Graphics/SVG/1.1/DTD/svg11.dtd"><svg t="1545978734548" class="icon" style="" viewBox="0 0 1024 1024" version="1.1" xmlns="http://www.w3.org/2000/svg" p-id="3710" xmlns:xlink="http://www.w3.org/1999/xlink" width="128" height="128"><defs><style type="text/css"></style></defs><path d="M832 64H192c-70.4 0-128 57.6-128 128v640c0 70.4 57.6 128 128 128h640c70.4 0 128-57.6 128-128V192c0-70.4-57.6-128-128-128z m64 768c0 32-32 64-64 64H192c-32 0-64-32-64-64V192c0-32 32-64 64-64h640c32 0 64 32 64 64v640z m-96-576H441.6c-12.8-38.4-44.8-64-89.6-64s-76.8 25.6-89.6 64h-38.4c-19.2 0-32 12.8-32 32s12.8 32 32 32h38.4c12.8 38.4 51.2 64 89.6 64s76.8-25.6 89.6-64h358.4c19.2 0 32-12.8 32-32s-12.8-32-32-32z m-448 64c-19.2 0-32-12.8-32-32s12.8-32 32-32 32 12.8 32 32-12.8 32-32 32z m448 384H569.6c-12.8-38.4-51.2-64-89.6-64s-76.8 25.6-89.6 64H224c-19.2 0-32 12.8-32 32s12.8 32 32 32h166.4c12.8 38.4 51.2 64 89.6 64s76.8-25.6 89.6-64h230.4c19.2 0 32-12.8 32-32s-12.8-32-32-32z m-320 64c-19.2 0-32-12.8-32-32s12.8-32 32-32 32 12.8 32 32-12.8 32-32 32z m320-288h-102.4c-12.8-38.4-51.2-64-89.6-64s-76.8 25.6-89.6 64H224c-19.2 0-32 12.8-32 32s12.8 32 32 32h294.4c12.8 38.4 51.2 64 89.6 64s76.8-25.6 89.6-64h102.4c19.2 0 32-12.8 32-32s-12.8-32-32-32z m-192 64c-19.2 0-32-12.8-32-32s12.8-32 32-32 32 12.8 32 32-12.8 32-32 32z" p-id="3711"></path></svg>