<?xml version="1.0" standalone="no"?><!DOCTYPE svg PUBLIC "-//W3C//DTD SVG 1.1//EN" "http://www.w3.org/Graphics/SVG/1.1/DTD/svg11.dtd"><svg t="1545979662586" class="icon" style="" viewBox="0 0 1024 1024" version="1.1" xmlns="http://www.w3.org/2000/svg" p-id="4485" xmlns:xlink="http://www.w3.org/1999/xlink" width="128" height="128"><defs><style type="text/css"></style></defs><path d="M725.333333 375.466667h-426.666666a17.066667 17.066667 0 1 0 0 34.133333h426.666666a17.066667 17.066667 0 1 0 0-34.133333zM298.666667 273.066667h170.666666a17.066667 17.066667 0 1 0 0-34.133334h-170.666666a17.066667 17.066667 0 1 0 0 34.133334zM725.333333 512h-426.666666a17.066667 17.066667 0 1 0 0 34.133333h426.666666a17.066667 17.066667 0 1 0 0-34.133333zM725.333333 648.533333h-426.666666a17.066667 17.066667 0 1 0 0 34.133334h426.666666a17.066667 17.066667 0 1 0 0-34.133334zM725.333333 785.066667h-426.666666a17.066667 17.066667 0 1 0 0 34.133333h426.666666a17.066667 17.066667 0 1 0 0-34.133333z" p-id="4486"></path><path d="M664.132267 0H110.933333v1024h802.133334V248.9344L664.132267 0z m10.001066 58.2656L854.801067 238.933333H674.133333V58.2656zM145.066667 989.866667V34.133333h494.933333v238.933334h238.933333v716.8h-733.866666z" p-id="4487"></path></svg>